HIERARCHY
ROOT root
{
	OFFSET 0.000000 0.000000 0.000000
	CHANNELS 6 Xposition Yposition Zposition Zrotation Yrotation Xrotation
	JOINT lhip
	{
		OFFSET 0.058581 -0.082280 -0.017664
		CHANNELS 3 Zrotation Yrotation Xrotation
		JOINT lknee
		{
			OFFSET 0.043451 -0.386469 0.008037
			CHANNELS 3 Zrotation Yrotation Xrotation
			JOINT lankle
			{
				OFFSET -0.014790 -0.426874 -0.037428
				CHANNELS 3 Zrotation Yrotation Xrotation
				JOINT ltoe
				{
					OFFSET 0.041054 -0.060286 0.122042
					CHANNELS 3 Zrotation Yrotation Xrotation
					End Site
					{
						OFFSET 0.000000 0.000000 0.000000
					}
				}
			}
		}
	}
	JOINT rhip
	{
		OFFSET -0.060310 -0.090513 -0.013543
		CHANNELS 3 Zrotation Yrotation Xrotation
		JOINT rknee
		{
			OFFSET -0.043257 -0.383688 -0.004843
			CHANNELS 3 Zrotation Yrotation Xrotation
			JOINT rankle
			{
				OFFSET 0.019056 -0.420046 -0.034562
				CHANNELS 3 Zrotation Yrotation Xrotation
				JOINT rtoe
				{
					OFFSET -0.034840 -0.062106 0.130323
					CHANNELS 3 Zrotation Yrotation Xrotation
					End Site
					{
						OFFSET 0.000000 0.000000 0.000000
					}
				}
			}
		}
	}
	JOINT lowerback
	{
		OFFSET 0.004439 0.124404 -0.038385
		CHANNELS 3 Zrotation Yrotation Xrotation
		JOINT upperback
		{
			OFFSET 0.004488 0.137956 0.026820
			CHANNELS 3 Zrotation Yrotation Xrotation
			JOINT chest
			{
				OFFSET -0.002265 0.056032 0.002855
				CHANNELS 3 Zrotation Yrotation Xrotation
				JOINT lowerneck
				{
					OFFSET -0.013390 0.211636 -0.033468
					CHANNELS 3 Zrotation Yrotation Xrotation
					JOINT upperneck
					{
						OFFSET 0.010113 0.088937 0.050410
						CHANNELS 3 Zrotation Yrotation Xrotation
						End Site
						{
							OFFSET 0.000000 0.000000 0.000000
						}
					}
				}
				JOINT lclavicle
				{
					OFFSET 0.071702 0.114000 -0.018898
					CHANNELS 3 Zrotation Yrotation Xrotation
					JOINT lshoulder
					{
						OFFSET 0.122921 0.045205 -0.019046
						CHANNELS 3 Zrotation Yrotation Xrotation
						JOINT lelbow
						{
							OFFSET 0.255332 -0.015649 -0.022946
							CHANNELS 3 Zrotation Yrotation Xrotation
							JOINT lwrist
							{
								OFFSET 0.265709 0.012698 -0.007375
								CHANNELS 3 Zrotation Yrotation Xrotation
								End Site
								{
									OFFSET 0.000000 0.000000 0.000000
								}
							}
						}
					}
				}
				JOINT rclavicle
				{
					OFFSET -0.082954 0.112472 -0.023707
					CHANNELS 3 Zrotation Yrotation Xrotation
					JOINT rshoulder
					{
						OFFSET -0.113228 0.046853 -0.008472
						CHANNELS 3 Zrotation Yrotation Xrotation
						JOINT relbow
						{
							OFFSET -0.260127 -0.014369 -0.031269
							CHANNELS 3 Zrotation Yrotation Xrotation
							JOINT rwrist
							{
								OFFSET -0.269108 0.006794 -0.006027
								CHANNELS 3 Zrotation Yrotation Xrotation
								End Site
								{
									OFFSET 0.000000 0.000000 0.000000
								}
							}
						}
					}
				}
			}
		}
	}
}
MOTION
Frames: 15
Frame Time: 0.033333
-0.246152 -1.171389 0.899917 -145.106079 -6.602802 101.945287 13.024933 8.139621 -39.998352 -10.630735 7.894380 41.689213 -2.186017 9.691659 -20.812412 0.000000 -0.000000 0.000000 -19.788044 -4.454868 -52.700361 2.265738 0.170691 59.475690 0.529791 -8.919970 -18.790594 0.000000 -0.000000 0.000000 8.043959 -7.345346 34.776527 1.301733 -2.472678 6.598822 -0.646822 4.041487 -11.530544 1.791404 -16.526238 -12.219601 15.042995 -18.760504 -0.281839 -38.707613 -24.248204 8.343749 -44.914723 -20.624116 36.250907 -32.108256 -55.612681 57.275991 12.809029 -17.829833 5.495415 28.455390 24.037175 9.329632 39.463723 -2.081583 8.649306 4.493805 36.965668 -29.082876 -10.269173 9.480096 -57.120166 
-0.262773 -1.173259 0.898287 -146.574913 -6.422476 101.692697 13.009086 7.436756 -40.146684 -9.683809 8.371875 42.797699 -1.518846 9.681878 -20.066225 0.000000 -0.000000 0.000000 -20.138486 -4.282786 -52.080134 2.450972 1.312101 59.207359 0.761853 -8.519602 -18.843597 0.000000 -0.000000 0.000000 7.766979 -6.705062 35.108217 0.921859 -2.417877 6.739579 -0.708452 3.942502 -11.773063 1.449346 -16.337064 -12.583227 14.952993 -18.698859 0.216122 -38.774097 -24.329451 8.337940 -45.141364 -20.583600 36.489580 -31.375606 -55.321221 56.508448 12.984335 -18.012847 5.880086 28.764375 24.030226 9.589299 39.476134 -1.886261 8.957255 4.162777 36.427168 -29.621424 -10.266744 9.547129 -56.563043 
-0.280622 -1.175037 0.896133 -148.124822 -5.986798 101.687267 12.590477 7.303774 -39.621305 -8.879240 9.293095 44.530748 -0.605426 9.839915 -22.612081 0.000000 -0.000000 0.000000 -20.376641 -3.773329 -51.730242 2.733427 2.533758 58.977766 1.403832 -8.288359 -19.082491 0.000000 -0.000000 0.000000 7.588283 -6.158570 34.963479 0.660822 -2.131121 6.672596 -0.816042 3.859885 -11.889649 1.317521 -15.724519 -12.913761 14.374748 -18.932257 0.557957 -38.832309 -24.427418 8.084214 -45.735814 -20.313090 37.121051 -29.697951 -54.600458 54.946100 12.863655 -18.294816 6.071212 29.268701 24.184315 9.624682 39.587176 -2.226565 9.877431 3.669696 35.943935 -30.096007 -10.952048 9.487713 -57.685147 
-0.298743 -1.176853 0.895059 -149.099181 -5.425485 101.757605 11.951059 7.197278 -39.865926 -8.194471 9.762721 46.336815 -0.114409 10.969569 -24.367204 0.000000 -0.000000 0.000000 -20.473546 -3.166212 -51.053758 2.560787 3.615875 58.250780 1.874091 -8.548368 -19.168798 0.000000 -0.000000 0.000000 7.737191 -5.867618 34.320220 0.730591 -2.039305 6.620617 -0.801317 3.914819 -11.772160 1.007081 -15.698671 -12.985225 13.984342 -18.664153 0.917431 -39.193921 -24.730613 8.444190 -45.901562 -20.420262 37.008244 -28.374311 -53.546724 54.112818 12.156202 -18.496880 6.391742 29.482602 24.195409 9.661408 39.825009 -2.487287 9.526210 3.237186 35.374354 -30.519691 -10.761296 9.170838 -56.940543 
-0.316244 -1.178665 0.895975 -149.803731 -5.045574 101.806101 11.355792 6.930283 -39.683576 -8.122972 10.041719 47.414979 0.143093 11.509980 -25.769631 0.000000 -0.000000 0.000000 -20.607380 -2.756183 -50.247945 2.156999 4.473474 57.365502 2.252467 -8.887170 -18.740909 0.000000 -0.000000 0.000000 7.925617 -5.580919 33.576870 1.037554 -2.094606 6.757047 -0.678475 3.859745 -11.858658 0.705358 -15.899025 -12.527852 13.957721 -18.383423 0.862092 -39.347286 -25.116474 9.004379 -45.890798 -20.682660 36.843752 -27.439505 -52.544691 53.812791 11.854674 -18.337554 6.510581 29.575782 24.162562 9.758645 40.090913 -2.494609 8.953083 2.793819 34.256653 -30.708797 -11.798748 9.150028 -56.196766 
-0.332839 -1.179690 0.897208 -150.387053 -4.736212 102.012800 10.924883 6.931631 -39.314303 -8.293316 10.640027 47.855659 0.484086 11.579648 -26.933126 0.000000 -0.000000 0.000000 -20.687117 -2.309011 -49.690684 1.374366 5.038123 56.535696 2.435561 -9.423988 -18.073935 0.000000 -0.000000 0.000000 8.299320 -5.504981 32.369559 1.426266 -2.138320 6.848895 -0.569348 3.892073 -11.750825 0.599809 -16.321419 -12.258501 13.695236 -18.490583 1.361281 -39.463172 -25.679436 9.615033 -45.607511 -21.027415 36.705916 -27.484302 -51.592644 53.904970 12.168795 -18.308919 6.631439 29.348190 24.007264 9.766637 40.304987 -3.079480 8.702149 3.089930 34.433707 -29.889674 -12.308245 8.333582 -56.297553 
-0.348306 -1.180032 0.898517 -150.720401 -4.655707 102.197177 9.946150 6.627348 -39.132953 -8.487776 10.583027 48.150661 0.878005 12.710010 -27.936751 0.000000 -0.000000 0.000000 -20.791633 -1.983295 -49.306677 0.486633 5.279294 56.240744 2.636962 -10.338450 -17.047078 0.000000 -0.000000 0.000000 8.806385 -5.902483 31.059398 1.924075 -2.245010 6.809399 -0.560973 3.966580 -11.277870 0.778406 -17.026067 -12.121625 13.332618 -18.572529 1.527195 -39.125052 -26.084107 10.082505 -45.412512 -21.733085 36.225381 -28.008470 -50.956745 55.152332 11.415301 -17.809968 6.833353 28.588854 23.857028 9.371892 41.015523 -3.667203 8.298943 2.562217 35.048678 -29.054252 -11.884869 7.243763 -56.190327 
-0.361801 -1.179572 0.900368 -151.281236 -4.592737 102.613349 9.208736 6.466560 -38.946345 -8.689369 10.698349 48.167977 1.194358 13.095868 -28.708313 0.000000 -0.000000 0.000000 -20.583558 -1.471297 -49.713825 -0.288551 5.025798 56.321535 2.693526 -11.924256 -16.051239 0.000000 -0.000000 0.000000 9.426074 -6.456728 30.041890 2.446602 -2.167615 6.163264 -0.317707 3.927689 -10.514853 0.747909 -17.658913 -11.978130 13.111410 -18.677721 1.158907 -38.564168 -26.318192 9.820015 -45.519010 -22.134324 36.114141 -28.496651 -50.518898 56.620166 11.593842 -17.300086 6.563402 27.561549 23.734320 8.678828 41.892415 -4.013761 8.398040 2.582110 35.822927 -27.886332 -12.494938 5.006580 -56.993296 
-0.374060 -1.177649 0.901520 -151.762111 -4.853661 102.755170 8.349704 6.128434 -38.411130 -8.622202 11.158549 48.242661 1.393110 13.473420 -29.291696 0.000000 -0.000000 0.000000 -20.365398 -1.165740 -50.244657 -1.212074 3.995504 57.068270 2.533548 -12.757185 -15.677862 0.000000 -0.000000 0.000000 9.917640 -7.162685 29.195743 3.046105 -2.382852 6.080621 -0.072640 3.929128 -10.279876 0.849158 -18.182116 -11.656720 12.961256 -18.713664 0.381889 -37.917443 -26.733418 9.775104 -45.301542 -22.395221 35.744054 -29.391708 -51.031222 57.854567 11.340324 -17.407993 7.009111 26.690953 23.981623 8.063086 42.358480 -3.982936 8.026453 1.962902 36.117309 -27.472957 -12.685171 4.979284 -55.805148 
-0.384735 -1.174216 0.901915 -152.466976 -5.316444 102.867536 7.446718 6.051957 -37.660123 -8.583734 11.764106 48.041768 1.192165 13.541128 -29.908960 0.000000 -0.000000 0.000000 -19.904694 -1.115914 -51.238193 -1.344926 2.977643 58.452913 2.228216 -13.175827 -16.102943 0.000000 -0.000000 0.000000 10.501819 -8.155961 28.760886 3.364328 -2.520349 6.021669 0.037783 3.989944 -10.280712 1.136461 -18.144732 -12.079819 12.430568 -19.021741 -0.486395 -37.147446 -26.972267 9.187578 -44.854776 -22.228773 35.499270 -31.337190 -52.234036 59.876915 9.991222 -17.465237 7.606150 25.815139 24.687494 7.474019 42.826940 -4.303120 8.536496 1.986800 36.955731 -27.087321 -12.191907 5.126683 -55.932993 
-0.393865 -1.169086 0.901784 -153.524324 -6.162406 102.889634 6.290757 6.257785 -36.558247 -8.643987 12.551675 47.609856 1.305769 13.990379 -30.406185 0.000000 -0.000000 0.000000 -19.376690 -1.141971 -52.417620 -1.691600 1.963440 59.927674 1.813110 -14.166972 -16.512121 0.000000 -0.000000 0.000000 10.872516 -8.871737 28.631910 3.650460 -2.545496 5.494834 0.255541 3.751062 -9.897316 1.048031 -18.394577 -12.097511 12.238407 -18.412558 -1.686761 -36.970387 -27.154966 8.994939 -43.748095 -22.041072 35.026373 -34.222397 -53.659233 63.203097 9.761948 -17.021355 8.025390 25.019427 24.920291 6.715763 43.136241 -4.348317 9.146937 2.531325 38.140272 -25.564912 -11.168625 4.095187 -56.731761 
-0.401487 -1.162536 0.900612 -155.035676 -7.235344 102.877910 5.062231 6.472811 -35.312613 -8.645234 13.352940 47.293484 1.405911 14.401419 -31.022244 0.000000 -0.000000 0.000000 -18.855834 -1.267860 -53.700135 -2.606405 0.671969 61.134018 1.207064 -15.492087 -17.042270 0.000000 -0.000000 0.000000 11.115192 -9.686394 28.718638 3.703898 -2.468349 4.971137 0.243518 3.577313 -9.750637 1.119029 -18.353552 -12.206416 11.724532 -17.961771 -2.536681 -36.518306 -26.936652 8.911399 -43.445694 -21.715280 34.492939 -35.769791 -54.762010 64.872080 9.404179 -17.167126 9.021230 24.655192 25.054733 6.644664 43.497700 -3.681644 9.014896 1.420239 38.497566 -25.185127 -10.821924 4.252732 -55.267349 
-0.408759 -1.154330 0.898925 -156.774603 -8.399766 102.925633 3.606592 6.713775 -34.152107 -9.001015 13.717968 46.979975 1.383085 15.875090 -31.993714 0.000000 -0.000000 0.000000 -18.511385 -1.711978 -54.929000 -3.594973 -0.232658 62.249952 0.713411 -17.068427 -17.072220 0.000000 -0.000000 0.000000 11.601631 -10.485974 28.386282 3.721817 -2.466784 4.693087 0.142323 3.653948 -9.384299 0.759983 -18.549762 -12.431623 11.048740 -16.855846 -3.238991 -36.853872 -27.030464 8.929038 -43.282243 -21.245810 34.326469 -35.832753 -54.756683 65.163226 10.604067 -17.940859 9.145986 24.100432 25.325073 6.234513 43.545493 -3.565307 9.037809 1.582786 38.633331 -24.308251 -11.040284 4.324239 -55.585404 
-0.414538 -1.145291 0.896481 -159.267941 -9.489240 103.361838 2.552765 7.348435 -33.286908 -8.724954 15.363301 47.464757 1.279795 15.919221 -32.367880 0.000000 -0.000000 0.000000 -18.920873 -1.519805 -56.123027 -4.554267 -0.082111 63.139040 0.481646 -17.403193 -17.069704 0.000000 -0.000000 0.000000 12.174902 -11.267306 28.016480 3.472988 -2.146054 4.589319 -0.082641 3.744706 -9.288198 0.602395 -18.063927 -12.311176 9.931954 -15.839276 -3.982124 -36.952105 -27.046298 8.543971 -43.767155 -20.384143 34.719045 -34.468989 -54.906866 64.134081 12.035199 -18.732179 8.248613 23.709923 25.614470 6.053473 43.867311 -3.244027 9.643396 1.039424 38.659682 -24.342640 -11.417065 4.490040 -55.828483 
-0.418304 -1.134428 0.893478 -161.500783 -10.121812 103.690964 2.593045 8.328242 -32.850172 -8.085447 17.517296 49.591374 0.893426 14.675633 -32.304312 0.000000 -0.000000 0.000000 -19.407419 -1.004046 -55.696282 -3.845404 1.379925 62.979928 0.399766 -16.898893 -18.600656 0.000000 -0.000000 0.000000 13.328843 -11.982345 27.742913 3.427947 -2.158243 4.308333 -0.170307 3.966116 -8.948048 0.346713 -17.335040 -11.999477 9.047429 -14.549383 -5.030233 -37.342229 -27.201237 8.341965 -43.991973 -19.412017 34.526524 -33.204852 -55.342985 62.675866 12.795147 -18.708349 7.331867 23.152587 25.962333 5.581022 43.900023 -3.342221 9.771934 1.419066 38.110961 -24.986291 -11.507096 4.311123 -57.192021 
